<?xml version="1.0" encoding="UTF-8"?>
<!DOCTYPE svg PUBLIC "-//W3C//DTD SVG 1.0//EN" "http://www.w3.org/TR/2001/REC-SVG-20010904/DTD/svg10.dtd">
<svg xmlns="http://www.w3.org/2000/svg" width="25" height="150"
    xmlns:xlink="http://www.w3.org/1999/xlink">
    <style type="text/css">
        * {
            stroke: #666;
            stroke-opacity: 1;
            stroke-linejoin: round;
        }
        line { stroke-width: 1.5; }
        rect { stroke-width: 0.5; }
        .shadearrow {
            stroke-width: 1.5;
            fill: url(#grayfill);
        }
        .controlbox {
            fill: white;
            fill-opacity: 0.75; 
        }
    </style>
    <defs>
        <rect width="22" height="22" rx="3" ry="3" x="1" y="1" id="largecontrol" class="controlbox"/>
        <rect width="16" height="16" rx="3" ry="3" x="4" y="4" id="smallcontrol" class="controlbox"/>
        <linearGradient id="bluefill" x1="0%" x2="0%" y1="0%" y2="100%">
            <stop offset="0%" stop-color="rgb(135,216,249)" stop-opacity="1"/>
            <stop offset="100%" stop-color="rgb(18,119,232)" stop-opacity="1"/>
        </linearGradient>
        <linearGradient id="grayfill" x1="0%" x2="100%" y1="0%" y2="0%">
            <stop offset="0%" stop-color="rgb(162,162,162)" stop-opacity="1"/>
            <stop offset="100%" stop-color="rgb(202,202,202)" stop-opacity="1"/>
        </linearGradient>
    </defs>
    <g>
        <use xlink:href="#smallcontrol"/>
        <line x1="7" y1="12" x2="17" y2="12"/>
    </g>
    <g transform="translate(0,25)">
        <use xlink:href="#smallcontrol"/>
        <line x1="7" y1="12" x2="17" y2="12"/>
        <line x1="12" y1="7" x2="12" y2="17"/>
    </g>
    <g transform="translate(0,50)">
        <use xlink:href="#largecontrol"/>
        <line x1="5" y1="5" x2="19" y2="19"/>
        <line x1="5" y1="19" x2="19" y2="5"/>
    </g>
    <g transform="translate(0,75)">
        <use xlink:href="#largecontrol"/>
        <rect width="18" height="18" rx="3" ry="3" x="3" y="3" style="fill: url(#bluefill); "/>
        <polygon points="5,8 19,8 12,16" style="fill: white; stroke: rgb(18,119,232); "/>
    </g>
    <g transform="translate(0,100)">
        <polygon points="5,12 20,1 20,22" class="shadearrow"/>
    </g>
    <g transform="translate(0,125)">
        <polygon points="20,12 5,1 5,22" class="shadearrow"/>
    </g>
</svg>
