<?xml version="1.0" encoding="UTF-8" standalone="no"?>
<!-- Created with Inkscape (http://www.inkscape.org/) -->

<svg
   xmlns:dc="http://purl.org/dc/elements/1.1/"
   xmlns:cc="http://creativecommons.org/ns#"
   xmlns:rdf="http://www.w3.org/1999/02/22-rdf-syntax-ns#"
   xmlns:svg="http://www.w3.org/2000/svg"
   xmlns="http://www.w3.org/2000/svg"
   xmlns:inkscape="http://www.inkscape.org/namespaces/inkscape"
   version="1.1"
   width="434.83749"
   height="75.824997"
   id="svg2"
   xml:space="preserve"><metadata
     id="metadata8"><rdf:RDF><cc:Work
         rdf:about=""><dc:format>image/svg+xml</dc:format><dc:type
           rdf:resource="http://purl.org/dc/dcmitype/StillImage" /></cc:Work></rdf:RDF></metadata><defs
     id="defs6"><clipPath
       id="clipPath18"><path
         d="M 0,606.562 0,0 l 3478.69,0 0,606.562 -3478.69,0 z"
         inkscape:connector-curvature="0"
         id="path20" /></clipPath></defs><g
     transform="matrix(1.25,0,0,-1.25,0,75.825)"
     id="g10"><g
       transform="scale(0.1,0.1)"
       id="g12"><g
         id="g14"><g
           clip-path="url(#clipPath18)"
           id="g16"><path
             d="m 418.066,181.23 1.309,0 103.867,412.754 46.309,0 -125.02,-476.23 -49.609,0 -110.469,420.703 -1.328,0 -110.469,-420.703 -49.609,0 L 0,593.984 l 45,0 102.5,-412.754 1.328,0 110.508,412.754 50.234,0 108.496,-412.754"
             inkscape:connector-curvature="0"
             id="path22"
             style="fill:#231f20;fill-opacity:1;fill-rule:nonzero;stroke:none" /><path
             d="m 840.781,279.805 c 0.645,123.047 -56.894,189.843 -150.82,189.843 -97.93,0 -157.441,-82.011 -157.441,-181.914 0,-101.191 47.597,-179.277 157.441,-179.277 87.305,0 128.301,49.609 148.144,114.453 l -44.316,0 c -11.914,-50.254 -52.266,-78.73 -103.828,-78.73 -76.094,0 -115.762,61.523 -115.137,135.625 l 265.957,0 z m -265.957,33.066 c 7.969,64.844 45,121.055 115.137,121.055 71.406,0 108.477,-54.258 108.477,-121.055 l -223.614,0"
             inkscape:connector-curvature="0"
             id="path24"
             style="fill:#231f20;fill-opacity:1;fill-rule:nonzero;stroke:none" /><path
             d="m 916.172,177.93 1.308,0 c 23.165,-44.981 75.45,-69.473 119.08,-69.473 110.49,0 154.81,78.711 154.81,179.941 0,95.899 -48.3,181.25 -152.8,181.25 -48.336,0 -97.261,-22.48 -122.398,-64.16 l 0,188.496 -39.688,0 0,-476.23 39.688,0 0,60.176 z m 0,112.441 c 0,77.402 43.633,143.555 115.758,143.555 82.03,0 120.39,-69.453 117.09,-155.469 -0.66,-85.977 -50.27,-134.277 -117.09,-134.277 -74.742,0 -115.758,63.496 -115.758,146.191"
             inkscape:connector-curvature="0"
             id="path26"
             style="fill:#231f20;fill-opacity:1;fill-rule:nonzero;stroke:none" /><path
             d="m 1322.34,117.754 17.86,62.812 155.43,0 18.53,-62.812 155.45,0 -170.67,476.23 -158.74,0 -170.69,-476.23 152.83,0 z m 146.17,162.051 -98.55,0 48.28,170.683 50.27,-170.683"
             inkscape:connector-curvature="0"
             id="path28"
             style="fill:#ed1c24;fill-opacity:1;fill-rule:nonzero;stroke:none" /><path
             d="m 1783.4,225.566 c 0,-13.906 5.29,-24.472 14.55,-31.757 8.57,-6.641 20.51,-10.586 33.73,-10.586 21.17,0 43.69,6.621 43.69,31.074 0,55.566 -212.36,11.269 -212.36,145.527 0,88.653 91.91,114.453 164.06,114.453 75.39,0 164.06,-17.207 171.97,-109.14 l -125.02,0 c -1.33,11.25 -5.93,19.16 -13.24,25.136 -7.27,5.957 -17.19,8.594 -27.77,8.594 -23.81,0 -39.05,-7.265 -39.05,-24.472 0,-48.301 218.97,-15.879 218.97,-145.547 0,-72.09 -59.53,-121.036 -186.54,-121.036 -79.4,0 -166.7,24.473 -173.97,117.754 l 130.98,0"
             inkscape:connector-curvature="0"
             id="path30"
             style="fill:#ed1c24;fill-opacity:1;fill-rule:nonzero;stroke:none" /><path
             d="m 2154.49,225.566 c 0,-13.906 5.26,-24.472 14.57,-31.757 8.58,-6.641 20.49,-10.586 33.71,-10.586 21.17,0 43.64,6.621 43.64,31.074 0,55.566 -212.33,11.269 -212.33,145.527 0,88.653 91.97,114.453 164.06,114.453 75.39,0 164.05,-17.207 172,-109.14 l -125.02,0 c -1.35,11.25 -5.96,19.16 -13.25,25.136 -7.24,5.957 -17.2,8.594 -27.77,8.594 -23.83,0 -39.04,-7.265 -39.04,-24.472 0,-48.301 218.96,-15.879 218.96,-145.547 0,-72.09 -59.53,-121.036 -186.54,-121.036 -79.36,0 -166.7,24.473 -173.97,117.754 l 130.98,0"
             inkscape:connector-curvature="0"
             id="path32"
             style="fill:#ed1c24;fill-opacity:1;fill-rule:nonzero;stroke:none" /><path
             d="m 2410.53,606.562 137.54,0 0,-97.91 -137.54,0 0,97.91 z m 0,-488.808 0,346.621 137.54,0 0,-346.621 -137.54,0"
             inkscape:connector-curvature="0"
             id="path34"
             style="fill:#ed1c24;fill-opacity:1;fill-rule:nonzero;stroke:none" /><path
             d="M 2590.41,99.8633 C 2597.03,48.9258 2648.61,0 2771.02,0 c 170.68,0 182.53,81.3672 182.53,185.195 l 0,279.18 -121.03,0 0,-45.645 c -24.47,33.711 -63.48,55.547 -105.2,55.547 -113.75,0 -154.76,-90.644 -154.76,-175.937 0,-88.652 54.9,-164.063 150.84,-164.063 49.61,0 79.35,17.871 99.22,37.696 l 0,-28.438 c 0,-49.6092 -15.9,-67.4998 -55.61,-67.4998 -13.87,0 -23.81,3.3203 -29.73,8.6328 -5.99,5.2734 -8.61,11.2304 -8.61,15.1953 l -138.26,0 z m 173.97,275.8597 c 43.67,0 58.24,-36.368 58.24,-74.746 0,-37.051 -15.9,-73.438 -58.24,-71.446 -37.06,0.664 -54.22,33.067 -54.22,67.461 0,45 12.54,79.395 54.22,78.731"
             inkscape:connector-curvature="0"
             id="path36"
             style="fill:#ed1c24;fill-opacity:1;fill-rule:nonzero;stroke:none" /><path
             d="m 2983.32,464.375 125.7,0 0,-54.238 c 31.12,41.64 64.83,64.14 117.05,64.14 91.31,0 134.3,-53.574 134.3,-148.828 l 0,-207.695 -137.54,0 0,183.223 c 0,34.394 -9.31,64.824 -48.32,64.824 -42.36,0 -53.59,-27.129 -53.59,-71.446 l 0,-176.601 -137.6,0 0,346.621"
             inkscape:connector-curvature="0"
             id="path38"
             style="fill:#ed1c24;fill-opacity:1;fill-rule:nonzero;stroke:none" /><path
             d="m 3432.99,166.609 c 6.68,0 12.66,0.481 12.66,8.469 0,6.442 -5.85,7.633 -11.35,7.633 l -10.73,0 0,-16.102 9.42,0 z m -9.42,-29.226 -7.87,0 0,52.012 19.8,0 c 12.28,0 18.38,-4.528 18.38,-14.797 0,-9.301 -5.84,-13.364 -13.49,-14.309 l 14.81,-22.906 -8.83,0 -13.73,22.547 -9.07,0 0,-22.547 z m 9.54,-11.574 c 20.41,0 36.51,15.988 36.51,37.695 0,21.363 -16.1,37.461 -36.51,37.461 -20.63,0 -36.73,-16.098 -36.73,-37.461 0,-21.707 16.1,-37.695 36.73,-37.695 z m -45.81,37.695 c 0,25.891 21,44.98 45.81,44.98 24.57,0 45.58,-19.089 45.58,-44.98 0,-26.121 -21.01,-45.211 -45.58,-45.211 -24.81,0 -45.81,19.09 -45.81,45.211"
             inkscape:connector-curvature="0"
             id="path40"
             style="fill:#ed1c24;fill-opacity:1;fill-rule:nonzero;stroke:none" /></g></g></g></g></svg>