<?xml version="1.0" encoding="utf-8"?>
<!-- Generator: Adobe Illustrator 17.0.2, SVG Export Plug-In . SVG Version: 6.00 Build 0)  -->
<!DOCTYPE svg PUBLIC "-//W3C//DTD SVG 1.1//EN" "http://www.w3.org/Graphics/SVG/1.1/DTD/svg11.dtd" [
	<!ENTITY st0 "fill:#CC0000;">
]>
<svg version="1.1" id="Layer_1" xmlns="http://www.w3.org/2000/svg" xmlns:xlink="http://www.w3.org/1999/xlink" x="0px" y="0px"
	 width="142px" height="23.75px" viewBox="0 0 142 23.75" style="enable-background:new 0 0 142 23.75;" xml:space="preserve">
<g>
	<g>
		<path d="M17.055,16.586h0.05L21.04,0.947h1.755l-4.737,18.044h-1.88l-4.186-15.94h-0.05l-4.186,15.94h-1.88L1.215,0.947H2.92
			l3.884,15.639h0.05l4.187-15.639h1.903L17.055,16.586z"/>
	</g>
	<g>
		<path d="M22.994,11.598c0.302-2.457,1.705-4.586,4.363-4.586c2.706,0,4.11,2.056,4.11,4.586H22.994z M33.071,12.851
			c0.024-4.662-2.156-7.193-5.714-7.193c-3.71,0-5.965,3.107-5.965,6.892c0,3.834,1.804,6.793,5.965,6.793
			c3.308,0,4.861-1.88,5.613-4.336H31.29c-0.451,1.904-1.98,2.983-3.934,2.983c-2.883,0-4.386-2.331-4.363-5.139L33.071,12.851
			L33.071,12.851z"/>
	</g>
	<g>
		<path d="M35.928,12.451c0-2.933,1.653-5.439,4.386-5.439c3.108,0,4.561,2.631,4.436,5.891c-0.025,3.258-1.905,5.088-4.436,5.088
			C37.482,17.99,35.928,15.584,35.928,12.451z M35.928,16.711h0.05c0.878,1.704,2.859,2.632,4.512,2.632
			c4.186,0,5.865-2.982,5.865-6.818c0-3.634-1.83-6.867-5.789-6.867c-1.832,0-3.685,0.852-4.638,2.431V0.947h-1.504v18.044h1.504
			V16.711z"/>
	</g>
	<g>
		<path style="&st0;" d="M56.855,12.851h-3.734l1.829-6.467L56.855,12.851z M51.317,18.991l0.676-2.38h5.889l0.702,2.38h5.89
			L58.008,0.947h-6.015l-6.467,18.044C45.526,18.991,51.317,18.991,51.317,18.991z"/>
	</g>
	<g>
		<path style="&st0;" d="M68.786,14.906c0,0.527,0.2,0.927,0.551,1.203c0.325,0.252,0.777,0.401,1.278,0.401
			c0.802,0,1.655-0.251,1.655-1.177c0-2.106-8.046-0.427-8.046-5.514c0-3.359,3.482-4.336,6.216-4.336
			c2.856,0,6.216,0.652,6.516,4.135H72.22c-0.05-0.426-0.225-0.726-0.502-0.953c-0.275-0.226-0.651-0.325-1.052-0.325
			c-0.902,0-1.479,0.275-1.479,0.927c0,1.83,8.296,0.602,8.296,5.515c0,2.731-2.256,4.586-7.068,4.586
			c-3.008,0-6.316-0.927-6.591-4.461L68.786,14.906L68.786,14.906z"/>
	</g>
	<g>
		<path style="&st0;" d="M82.846,14.906c0,0.527,0.199,0.927,0.552,1.203c0.325,0.252,0.776,0.401,1.277,0.401
			c0.802,0,1.653-0.251,1.653-1.177c0-2.106-8.045-0.427-8.045-5.514c0-3.359,3.485-4.336,6.216-4.336
			c2.856,0,6.215,0.652,6.517,4.135H86.28c-0.051-0.426-0.226-0.726-0.502-0.953c-0.275-0.226-0.652-0.325-1.052-0.325
			c-0.903,0-1.479,0.275-1.479,0.927c0,1.83,8.296,0.602,8.296,5.515c0,2.731-2.256,4.586-7.068,4.586
			c-3.007,0-6.316-0.927-6.591-4.461L82.846,14.906L82.846,14.906z"/>
	</g>
	<g>
		<path style="&st0;" d="M92.548,18.991V5.858h5.211v13.133H92.548z M92.548,0.471h5.211v3.71h-5.211L92.548,0.471L92.548,0.471z"/>
	</g>
	<g>
		<path style="&st0;" d="M105.954,9.217c1.655,0,2.207,1.378,2.207,2.832c0,1.404-0.602,2.783-2.207,2.707
			c-1.404-0.025-2.054-1.253-2.054-2.556C103.9,10.495,104.375,9.192,105.954,9.217z M99.363,19.669
			c0.251,1.93,2.205,3.784,6.843,3.784c6.467,0,6.916-3.083,6.916-7.017V5.858h-4.586v1.73c-0.927-1.277-2.405-2.105-3.986-2.105
			c-4.31,0-5.864,3.435-5.864,6.666c0,3.359,2.08,6.216,5.715,6.216c1.88,0,3.007-0.677,3.759-1.428v1.078
			c0,1.88-0.602,2.558-2.107,2.558c-0.526,0-0.902-0.126-1.126-0.327c-0.227-0.2-0.326-0.425-0.326-0.576
			C104.601,19.669,99.363,19.669,99.363,19.669z"/>
	</g>
	<g>
		<path style="&st0;" d="M114.25,5.858h4.763v2.055c1.179-1.578,2.456-2.43,4.435-2.43c3.46,0,5.089,2.03,5.089,5.639v7.869h-5.211
			v-6.942c0-1.303-0.353-2.456-1.831-2.456c-1.605,0-2.03,1.028-2.03,2.707v6.691h-5.214L114.25,5.858L114.25,5.858z"/>
	</g>
	<g>
		<g>
			<path style="&st0;" d="M129.557,17.258c0-0.981,0.796-1.704,1.736-1.704c0.931,0,1.727,0.723,1.727,1.704
				c0,0.99-0.796,1.713-1.727,1.713C130.352,18.971,129.557,18.248,129.557,17.258z M131.293,18.686
				c0.773,0,1.383-0.606,1.383-1.428c0-0.809-0.61-1.419-1.383-1.419c-0.782,0-1.392,0.61-1.392,1.419
				C129.901,18.08,130.511,18.686,131.293,18.686z M130.931,18.248h-0.298v-1.971h0.75c0.466,0,0.696,0.172,0.696,0.56
				c0,0.352-0.221,0.506-0.511,0.542l0.561,0.868h-0.335l-0.52-0.854h-0.343L130.931,18.248L130.931,18.248z M131.288,17.14
				c0.253,0,0.48-0.018,0.48-0.321c0-0.244-0.222-0.289-0.43-0.289h-0.406v0.61H131.288z"/>
		</g>
	</g>
</g>
</svg>
